<svg xmlns="http://www.w3.org/2000/svg" width="32" height="32" viewBox="0 0 32 32"><path fill="#9e9e9e" d="M25.613 8.954H15.36v-1.28H25.6zm0 3.84H15.36v-1.28H25.6zm0 3.84H15.36v-1.28H25.6zm0 3.84H7.053v-1.28h18.56zm0 3.846H7.053v-1.28h18.56zM12.8 8.314H8.32a.64.64 0 0 0-.64.64v5.76c0 .353.287.64.64.64h4.48a.64.64 0 0 0 .64-.64v-5.76a.64.64 0 0 0-.64-.64zm0-.64c.707 0 1.28.573 1.28 1.28v5.76a1.28 1.28 0 0 1-1.28 1.28H8.32a1.28 1.28 0 0 1-1.28-1.28v-5.76c0-.704.576-1.28 1.28-1.28zm3.52 23.686c-8.302-.011-15.029-6.738-15.04-15.039v-.001C1.291 8.018 8.018 1.291 16.319 1.28h.001c8.302.011 15.029 6.738 15.04 15.039v.001c-.011 8.302-6.738 15.029-15.039 15.04h-.001zm0-29.44c-7.936 0-14.4 6.464-14.4 14.4s6.464 14.4 14.4 14.4 14.4-6.464 14.4-14.4-6.464-14.4-14.4-14.4z"/></svg>