<svg xmlns="http://www.w3.org/2000/svg" width="32" height="32" viewBox="0 0 32 32"><path fill="#9e9e9e" d="M23.68 7.322v16.474a.733.733 0 0 1-.736.723l-.243.019v.339a.733.733 0 0 1-.749.723l-12.243.006a.741.741 0 0 1-.749-.73V8.415c0-.397.339-.723.749-.723h.115l13.12-1.088c.403 0 .73.32.73.717zm-1.952 1.094c0-.045-.045-.077-.096-.077H9.709c-.051 0-.09.032-.09.077v16.461c0 .045.038.077.09.077h11.923c.051 0 .096-.032.096-.077zm1.293-1.088v-.007a.077.077 0 0 0-.064-.076l-5.101.448h3.776c.416 0 .749.32.749.723v15.475l.506-.019h.058a.078.078 0 0 0 .077-.077zm-3.175 14.56v.384c0 .422-.326.768-.73.768h-6.867c-.403 0-.73-.346-.73-.768v-.384c0-.422.326-.768.73-.768h6.867c.403 0 .73.346.73.768zm-.64 0c0-.077-.051-.128-.09-.128h-6.867c-.038 0-.09.051-.09.128v.384c0 .07.045.128.09.128h6.867c.045 0 .09-.058.09-.128zM15.68 18.56a4.16 4.16 0 0 1 0-8.32 4.16 4.16 0 0 1 0 8.32zm0-7.68a3.52 3.52 0 0 0 0 7.04 3.52 3.52 0 0 0 0-7.04zm.64 20.48c-8.302-.011-15.029-6.738-15.04-15.039v-.001C1.291 8.018 8.018 1.291 16.319 1.28h.001c8.302.011 15.029 6.738 15.04 15.039v.001c-.011 8.302-6.738 15.029-15.039 15.04h-.001zm0-29.44c-7.936 0-14.4 6.464-14.4 14.4s6.464 14.4 14.4 14.4 14.4-6.464 14.4-14.4-6.464-14.4-14.4-14.4z"/></svg>