<svg xmlns="http://www.w3.org/2000/svg" width="32" height="32" viewBox="0 0 32 32"><path fill="#9e9e9e" d="M12.39 10.88h1.69v7.078c0 .499-.077.947-.237 1.338a2.787 2.787 0 0 1-1.657 1.594l-.019.006a4.296 4.296 0 0 1-1.336.208c-.439 0-.862-.064-1.262-.184l.031.008a2.56 2.56 0 0 1-1.671-1.481l-.006-.017a3.38 3.38 0 0 1-.238-1.255l.001-.081v.004h1.696c0 .288.032.538.109.742s.179.371.307.499c.134.128.294.218.474.282.192.058.39.09.614.09.218 0 .422-.038.608-.115.179-.077.339-.192.474-.339.128-.147.237-.326.307-.544.077-.218.115-.467.115-.755zm9.504 7.533a1.52 1.52 0 0 0-.09-.538 1.066 1.066 0 0 0-.339-.435 3.21 3.21 0 0 0-.666-.384 13.537 13.537 0 0 0-1.101-.378 11.674 11.674 0 0 1-1.357-.48 4.71 4.71 0 0 1-1.078-.647l.009.007a2.746 2.746 0 0 1-.697-.818l-.007-.014a2.206 2.206 0 0 1-.256-1.041v-.043.002c0-.397.096-.768.269-1.107.179-.333.429-.627.749-.87a3.46 3.46 0 0 1 1.152-.576c.427-.13.917-.205 1.425-.205h.049-.003c.582 0 1.107.077 1.568.243.461.16.851.384 1.165.659.598.524.976 1.286.986 2.136v.002h-1.779c0-.243-.038-.461-.115-.666s-.192-.384-.358-.525a1.645 1.645 0 0 0-.596-.342l-.012-.003a2.675 2.675 0 0 0-.864-.128c-.32 0-.589.038-.819.109-.23.064-.422.16-.576.282a1.117 1.117 0 0 0-.339.442c-.07.166-.109.352-.109.544 0 .371.179.678.538.922.475.294 1.026.53 1.611.676l.04.008a9.63 9.63 0 0 1 1.504.55 4.37 4.37 0 0 1 1.061.683l-.005-.004a2.46 2.46 0 0 1 .833 1.847l-.001.077v-.004.03c0 .799-.388 1.508-.986 1.949l-.007.005c-.32.237-.704.422-1.158.544a5.636 5.636 0 0 1-3.009-.016l.04.01a3.975 3.975 0 0 1-1.293-.589 3.004 3.004 0 0 1-.922-.979 2.625 2.625 0 0 1-.353-1.323l.001-.063v.003h1.792c0 .32.051.582.166.813.115.224.275.41.474.55.198.147.435.25.71.32.275.064.57.096.883.096.621 0 1.088-.128 1.402-.365.314-.243.467-.57.467-.966zM16.32 31.36c-8.302-.011-15.029-6.738-15.04-15.039v-.001C1.291 8.018 8.018 1.291 16.319 1.28h.001c8.302.011 15.029 6.738 15.04 15.039v.001c-.011 8.302-6.738 15.029-15.039 15.04h-.001zm0-29.44c-7.936 0-14.4 6.464-14.4 14.4s6.464 14.4 14.4 14.4 14.4-6.464 14.4-14.4-6.464-14.4-14.4-14.4z"/></svg>