<svg xmlns="http://www.w3.org/2000/svg" width="32" height="32" viewBox="0 0 32 32"><path fill="#9e9e9e" d="M10.56 12.154h-.64a1.6 1.6 0 0 1-1.6-1.6v-.64a1.6 1.6 0 0 1 1.6-1.6h.64a1.6 1.6 0 0 1 1.6 1.6v.64a1.6 1.6 0 0 1-1.6 1.6zm-.64-3.2a.959.959 0 0 0-.96.96v.64c0 .531.429.96.96.96h.64c.531 0 .96-.429.96-.96v-.64a.959.959 0 0 0-.96-.96zm14.4 1.92H14.08v-1.28h10.24zm-13.76 7.68h-.64a1.6 1.6 0 0 1-1.6-1.6v-.64a1.6 1.6 0 0 1 1.6-1.6h.64a1.6 1.6 0 0 1 1.6 1.6v.64a1.6 1.6 0 0 1-1.6 1.6zm-.64-3.2a.963.963 0 0 0-.96.96v.64c0 .531.429.96.96.96h.64c.531 0 .96-.429.96-.96v-.64a.963.963 0 0 0-.96-.96zm14.4 1.92H14.08v-1.28h10.24zM10.56 24.96h-.64a1.6 1.6 0 0 1-1.6-1.6v-.64a1.6 1.6 0 0 1 1.6-1.6h.64a1.6 1.6 0 0 1 1.6 1.6v.64a1.6 1.6 0 0 1-1.6 1.6zm-.64-3.2a.959.959 0 0 0-.96.96v.64c0 .531.429.96.96.96h.64c.531 0 .96-.429.96-.96v-.64a.959.959 0 0 0-.96-.96zm14.4 1.92H14.08V22.4h10.24zm-8 7.68c-8.302-.011-15.029-6.738-15.04-15.039v-.001C1.291 8.018 8.018 1.291 16.319 1.28h.001c8.302.011 15.029 6.738 15.04 15.039v.001c-.011 8.302-6.738 15.029-15.039 15.04h-.001zm0-29.44c-7.936 0-14.4 6.464-14.4 14.4s6.464 14.4 14.4 14.4 14.4-6.464 14.4-14.4-6.464-14.4-14.4-14.4z"/></svg>