<!-- Generated by IcoMoon.io -->
<svg version="1.1" xmlns="http://www.w3.org/2000/svg" width="32" height="32" viewBox="0 0 32 32">
<path fill="#9e9e9e" d="M23.68 7.322v16.474c0 0.397-0.333 0.723-0.736 0.723l-0.243 0.019v0.339c0 0.403-0.333 0.723-0.749 0.723l-12.243 0.006c-0.41 0-0.749-0.326-0.749-0.73v-16.461c0-0.397 0.339-0.723 0.749-0.723h0.115l13.12-1.088c0.403 0 0.73 0.32 0.73 0.717zM21.728 8.416c0-0.045-0.045-0.077-0.096-0.077h-11.923c-0.051 0-0.090 0.032-0.090 0.077v16.461c0 0.045 0.038 0.077 0.090 0.077h11.923c0.051 0 0.096-0.032 0.096-0.077zM23.021 7.328c0-0.002 0-0.005 0-0.007 0-0.038-0.028-0.070-0.064-0.076l-0-0-5.101 0.448h3.776c0.416 0 0.749 0.32 0.749 0.723v15.475l0.506-0.019h0.058c0.038 0 0.077-0.032 0.077-0.077zM19.846 21.888v0.384c0 0.422-0.326 0.768-0.73 0.768h-6.867c-0.403 0-0.73-0.346-0.73-0.768v-0.384c0-0.422 0.326-0.768 0.73-0.768h6.867c0.403 0 0.73 0.346 0.73 0.768zM19.206 21.888c0-0.077-0.051-0.128-0.090-0.128h-6.867c-0.038 0-0.090 0.051-0.090 0.128v0.384c0 0.070 0.045 0.128 0.090 0.128h6.867c0.045 0 0.090-0.058 0.090-0.128zM15.68 18.56c-2.297 0-4.16-1.863-4.16-4.16s1.863-4.16 4.16-4.16v0c2.297 0 4.16 1.863 4.16 4.16s-1.863 4.16-4.16 4.16v0zM15.68 10.88c-1.944 0-3.52 1.576-3.52 3.52s1.576 3.52 3.52 3.52v0c1.944 0 3.52-1.576 3.52-3.52s-1.576-3.52-3.52-3.52v0zM16.32 31.36c-8.302-0.011-15.029-6.738-15.040-15.039v-0.001c0.011-8.302 6.738-15.029 15.039-15.040h0.001c8.302 0.011 15.029 6.738 15.040 15.039v0.001c-0.011 8.302-6.738 15.029-15.039 15.040h-0.001zM16.32 1.92c-7.936 0-14.4 6.464-14.4 14.4s6.464 14.4 14.4 14.4 14.4-6.464 14.4-14.4-6.464-14.4-14.4-14.4z"></path>
</svg>
