<!-- Generated by IcoMoon.io -->
<svg version="1.1" xmlns="http://www.w3.org/2000/svg" width="32" height="32" viewBox="0 0 32 32">
<path fill="#9e9e9e" d="M25.613 8.954h-10.253v-1.28h10.24zM25.613 12.794h-10.253v-1.28h10.24zM25.613 16.634h-10.253v-1.28h10.24zM25.613 20.474h-18.56v-1.28h18.56zM25.613 24.32h-18.56v-1.28h18.56zM12.8 8.314h-4.48c-0.353 0-0.64 0.287-0.64 0.64v0 5.76c0 0.353 0.287 0.64 0.64 0.64v0h4.48c0.353 0 0.64-0.287 0.64-0.64v0-5.76c0-0.353-0.287-0.64-0.64-0.64v0zM12.8 7.674c0.707 0 1.28 0.573 1.28 1.28v0 5.76c0 0.707-0.573 1.28-1.28 1.28v0h-4.48c-0.707 0-1.28-0.573-1.28-1.28v0-5.76c0-0.704 0.576-1.28 1.28-1.28zM16.32 31.36c-8.302-0.011-15.029-6.738-15.040-15.039v-0.001c0.011-8.302 6.738-15.029 15.039-15.040h0.001c8.302 0.011 15.029 6.738 15.040 15.039v0.001c-0.011 8.302-6.738 15.029-15.039 15.040h-0.001zM16.32 1.92c-7.936 0-14.4 6.464-14.4 14.4s6.464 14.4 14.4 14.4 14.4-6.464 14.4-14.4-6.464-14.4-14.4-14.4z"></path>
</svg>
