<!-- Generated by IcoMoon.io -->
<svg version="1.1" xmlns="http://www.w3.org/2000/svg" width="32" height="32" viewBox="0 0 32 32">
<path fill="#9e9e9e" d="M12.39 10.88h1.69v7.078c0 0.499-0.077 0.947-0.237 1.338-0.304 0.753-0.907 1.33-1.657 1.594l-0.019 0.006c-0.399 0.132-0.858 0.208-1.336 0.208-0.439 0-0.862-0.064-1.262-0.184l0.031 0.008c-0.768-0.219-1.376-0.768-1.671-1.481l-0.006-0.017c-0.15-0.372-0.238-0.803-0.238-1.255 0-0.027 0-0.054 0.001-0.081l-0 0.004h1.696c0 0.288 0.032 0.538 0.109 0.742s0.179 0.371 0.307 0.499c0.134 0.128 0.294 0.218 0.474 0.282 0.192 0.058 0.39 0.090 0.614 0.090 0.218 0 0.422-0.038 0.608-0.115 0.179-0.077 0.339-0.192 0.474-0.339 0.128-0.147 0.237-0.326 0.307-0.544 0.077-0.218 0.115-0.467 0.115-0.755zM21.894 18.413c0-0.205-0.032-0.384-0.090-0.538-0.064-0.16-0.173-0.301-0.339-0.435-0.16-0.128-0.384-0.256-0.666-0.384-0.288-0.115-0.653-0.243-1.101-0.378-0.486-0.141-0.941-0.301-1.357-0.48-0.408-0.178-0.76-0.392-1.078-0.647l0.009 0.007c-0.286-0.227-0.522-0.503-0.697-0.818l-0.007-0.014c-0.162-0.302-0.256-0.66-0.256-1.041 0-0.014 0-0.029 0-0.043l-0 0.002c0-0.397 0.096-0.768 0.269-1.107 0.179-0.333 0.429-0.627 0.749-0.87 0.32-0.25 0.704-0.442 1.152-0.576 0.427-0.13 0.917-0.205 1.425-0.205 0.016 0 0.033 0 0.049 0l-0.003-0c0.582 0 1.107 0.077 1.568 0.243 0.461 0.16 0.851 0.384 1.165 0.659 0.598 0.524 0.976 1.286 0.986 2.136v0.002h-1.779c0-0.243-0.038-0.461-0.115-0.666s-0.192-0.384-0.358-0.525c-0.169-0.152-0.372-0.27-0.596-0.342l-0.012-0.003c-0.243-0.083-0.531-0.128-0.864-0.128-0.32 0-0.589 0.038-0.819 0.109-0.23 0.064-0.422 0.16-0.576 0.282-0.154 0.128-0.269 0.269-0.339 0.442-0.070 0.166-0.109 0.352-0.109 0.544 0 0.371 0.179 0.678 0.538 0.922 0.475 0.294 1.026 0.53 1.611 0.676l0.040 0.008c0.576 0.166 1.082 0.346 1.504 0.55 0.404 0.186 0.752 0.413 1.061 0.683l-0.005-0.004c0.512 0.454 0.833 1.113 0.833 1.847 0 0.026-0 0.051-0.001 0.077l0-0.004c0 0.009 0 0.020 0 0.030 0 0.799-0.388 1.508-0.986 1.949l-0.007 0.005c-0.32 0.237-0.704 0.422-1.158 0.544-0.442 0.124-0.949 0.196-1.473 0.196-0.533 0-1.048-0.074-1.536-0.212l0.040 0.010c-0.48-0.128-0.915-0.32-1.293-0.589-0.384-0.256-0.691-0.589-0.922-0.979-0.222-0.38-0.353-0.836-0.353-1.323 0-0.021 0-0.042 0.001-0.063l-0 0.003h1.792c0 0.32 0.051 0.582 0.166 0.813 0.115 0.224 0.275 0.41 0.474 0.55 0.198 0.147 0.435 0.25 0.71 0.32 0.275 0.064 0.57 0.096 0.883 0.096 0.621 0 1.088-0.128 1.402-0.365 0.314-0.243 0.467-0.57 0.467-0.966zM16.32 31.36c-8.302-0.011-15.029-6.738-15.040-15.039v-0.001c0.011-8.302 6.738-15.029 15.039-15.040h0.001c8.302 0.011 15.029 6.738 15.040 15.039v0.001c-0.011 8.302-6.738 15.029-15.039 15.040h-0.001zM16.32 1.92c-7.936 0-14.4 6.464-14.4 14.4s6.464 14.4 14.4 14.4 14.4-6.464 14.4-14.4-6.464-14.4-14.4-14.4z"></path>
</svg>
