<!-- Generated by IcoMoon.io -->
<svg version="1.1" xmlns="http://www.w3.org/2000/svg" width="32" height="32" viewBox="0 0 32 32">
<path fill="#9e9e9e" d="M10.56 12.154h-0.64c-0.884 0-1.6-0.716-1.6-1.6v0-0.64c0-0.884 0.716-1.6 1.6-1.6v0h0.64c0.884 0 1.6 0.716 1.6 1.6v0 0.64c0 0.884-0.716 1.6-1.6 1.6v0zM9.92 8.954c-0.531 0-0.96 0.429-0.96 0.96v0.64c0 0.531 0.429 0.96 0.96 0.96h0.64c0.531 0 0.96-0.429 0.96-0.96v-0.64c0-0.531-0.429-0.96-0.96-0.96zM24.32 10.874h-10.24v-1.28h10.24zM10.56 18.554h-0.64c-0.884 0-1.6-0.716-1.6-1.6v0-0.64c0-0.884 0.716-1.6 1.6-1.6v0h0.64c0.884 0 1.6 0.716 1.6 1.6v0 0.64c0 0.884-0.716 1.6-1.6 1.6v0zM9.92 15.354c-0.531 0-0.96 0.435-0.96 0.96v0.64c0 0.531 0.429 0.96 0.96 0.96h0.64c0.531 0 0.96-0.429 0.96-0.96v-0.64c0-0.525-0.429-0.96-0.96-0.96zM24.32 17.274h-10.24v-1.28h10.24zM10.56 24.96h-0.64c-0.884 0-1.6-0.716-1.6-1.6v0-0.64c0-0.884 0.716-1.6 1.6-1.6v0h0.64c0.884 0 1.6 0.716 1.6 1.6v0 0.64c0 0.884-0.716 1.6-1.6 1.6v0zM9.92 21.76c-0.531 0-0.96 0.429-0.96 0.96v0.64c0 0.531 0.429 0.96 0.96 0.96h0.64c0.531 0 0.96-0.429 0.96-0.96v-0.64c0-0.531-0.429-0.96-0.96-0.96zM24.32 23.68h-10.24v-1.28h10.24zM16.32 31.36c-8.302-0.011-15.029-6.738-15.040-15.039v-0.001c0.011-8.302 6.738-15.029 15.039-15.040h0.001c8.302 0.011 15.029 6.738 15.040 15.039v0.001c-0.011 8.302-6.738 15.029-15.039 15.040h-0.001zM16.32 1.92c-7.936 0-14.4 6.464-14.4 14.4s6.464 14.4 14.4 14.4 14.4-6.464 14.4-14.4-6.464-14.4-14.4-14.4z"></path>
</svg>
